<?xml version="1.0" encoding="utf-8"?>
<!-- Generator: Adobe Illustrator 25.0.0, SVG Export Plug-In . SVG Version: 6.00 Build 0)  -->
<svg version="1.1" id="Layer_1" xmlns="http://www.w3.org/2000/svg" xmlns:xlink="http://www.w3.org/1999/xlink" x="0px" y="0px"
	 viewBox="0 0 563.4 144.7" style="enable-background:new 0 0 563.4 144.7;" xml:space="preserve">
<style type="text/css">
	.st0{fill:#FF6C0E;}
</style>
<path class="st0" d="M295.8,40.4h19.6v72.1h-19.6V40.4z M305.5,11c-6.1,0-10.7,4.4-10.7,10.6c0,6.3,4.5,10.8,10.7,10.8
	c6.3,0,10.8-4.5,10.8-10.8C316.3,15.4,311.8,11,305.5,11z M364.5,38.6c-22,0-36.8,14.7-36.8,37.9c0,22.9,15.1,37.9,36.8,37.9
	c18.8,0,32.7-10.8,34.8-28.8v0h-17.2c-2.5,7-8.9,11.1-17.3,11.1c-11.3,0-19.2-8-19.2-20.2c0-12.4,7.7-20.2,19.2-20.2
	c8.4,0,14.9,4.1,17.3,11.2h17.1v-0.1C397.3,49.3,383.4,38.6,364.5,38.6z M283.5,76.5c0,22.9-13.1,37.9-31.9,37.9
	c-9.2,0-16.2-3.6-21-10.2h-1.4v40.6h-19.6V40.4h19.6v8.4h1.4c4.8-6.6,11.5-10.2,20.8-10.2C270.5,38.6,283.5,53.2,283.5,76.5z
	 M264,76.5c0-11.5-7.2-20.1-17.4-20.1c-10.1,0-17.4,8.7-17.4,20.1c0,11.5,7.4,20.1,17.4,20.1C256.8,96.6,264,87.9,264,76.5z
	 M183.5,16.6c-3.4-2.7-10.8-3-10.8-3s-2.8-9.1-12.2-12.1c-3.7-1.2-6.6-1.8-9.2-1.5c-1.9,0.2-1.9,1.6-1.8,2.8
	c0.2,1.5,0.6,2.9,1.5,4.3c0.7,1.1,1.6,2.1,2.8,3.1c4.2,3.7,6.7,2.5,10.2,3.4c3.3,0.9,4.1,3.1,4.1,3.1s-1.1-1.4-3.4-2
	c-0.9-0.2-2.1-0.4-2.9-0.5c-2.7-0.2-5.8,0.3-9.2-2.7c-1.3-1.1-2-1.9-2.8-3.1c-0.2-0.3-0.6-0.5-0.9-0.4l-0.2,0.1
	c-1.2,0.3-2,0.8-1.3,2.3c0.8,1.9,3.2,3.8,6,5c3,1.3,6.6,1.2,9.2,1.9c2.6,0.6,3.8,2.2,3.8,2.2s-0.9,1.1-1.6,3.1
	c-0.9,2.5-0.7,4.5-0.7,4.5s-25.2-8-44.2-13.9C88.2,3.6,65.4,26.8,51.2,43.9C26.4,73.9,8.1,67.2,2.3,65.3c-1-0.3-2,0.3-2.3,1.3
	c-0.2,0.7,0.1,1.5,0.7,1.9C18.8,80.1,36.4,74.7,62.7,55c16-12,24.8-11.7,24.8-11.7c0,19.5,10.4,16,12.4,35
	c1.1,10.4-3.2,18.4-6.7,24.7c-1.2,2.2-0.4,4.9,1.3,6.6c6.4,6.4,21.8,20.9,20.8,31.6c-0.1,0.8,0.6,1.6,1.3,1.9l3.7,1.4
	c1.9,0.7,3.5-0.8,3.5-2.8c-0.2-4.7-2.8-13.6-9.7-22.7c-9.7-12.9-9.2-18.6-1-27.8c6.9-7.8,14.1-13.7,16.8-26.8
	c2.5-12.4-3.4-20.5-6.7-23.8c-0.2-0.2,0.1-0.5,0.3-0.4c2.3,1.6,5.8,4.7,8,9.5c2.4,5.2,2,10.9,2,10.9c5.1-0.3,12-1.9,15.7-3.2
	c1.6-0.6,3.2,1,2.6,2.6c-1,2.9-3.4,6.8-7.7,9.9c-1,0.8-1.5,1.5-1.8,2.7l-0.7,3.4c-0.3,1.6,1.3,2.8,2.8,2.1
	c2.9-1.4,7.6-4.3,11.4-10.1c3.3-5,4.7-10,5.3-13.1c0.5-2.4,1.6-4.6,3.2-6.4c2.2-2.3,5.6-5.9,10.4-10.3c2.5-2.3,13.9,1,16.3-1.1
	c1.7-1.5,3.4-5.9,3.4-5.9C194.2,29.7,188.3,20.5,183.5,16.6z M483.3,40.4h-26.1l-24.6,26.4h-1.4V20.5h-19.6v92h19.6V83.6h1.4
	l24.5,28.9h26.2L451,75.1L483.3,40.4z M547,20.5h-19.5V87c0,15.1,12.2,27.3,27.3,27.3c5.5,0,8.6-1,8.6-1V94.2c0,0-1.6,0.6-4.2,0.6
	c-6.7,0-12.1-5.4-12.2-12.1L547,58.1h16.4V40.4H547V20.5z M493.1,112.5h19.6V40.4h-19.6V112.5z M502.9,11c-6.1,0-10.7,4.4-10.7,10.6
	s4.5,10.8,10.7,10.8c6.3,0,10.8-4.5,10.8-10.8S509.2,11,502.9,11z"/>
</svg>
